# xmcd
#
# Track frame offsets: 
#        150
#        14325
#        24973
#        38023
#        51955
#        62735
#        73028
#        82798
#        94573
#        107373
#        118853
#        131995
#        144695
#        154330
#
# Disc length: 2188 seconds
#
# Revision: 2
# Processed by: cddbd v1.5.2PL0 Copyright (c) Steve Scherf et al.
# Submitted via: ExactAudioCopyFreeDBPlugin 1.0
#
DISCID=b7088a0e
DTITLE=Freddy Fender - Freddy Fender - Gold 012
DYEAR=1993
DGENRE=Country
TTITLE0=Wasted Days And Wasted Nights
TTITLE1=A Man Can Cry
TTITLE2=Silver Wings
TTITLE3=Baby I Want To Love You
TTITLE4=Wild Side Of Live
TTITLE5=Crazy Baby
TTITLE6=But I Do
TTITLE7=I'm Leaving It Up To You
TTITLE8=Going Out With The Tide
TTITLE9=She's About A Mover
TTITLE10=The Girl Who Waits On Tables
TTITLE11=Enter My Heart
TTITLE12=Running Back
TTITLE13=Before The Next Teardrop Falls
EXTD=
EXTT0=
EXTT1=
EXTT2=
EXTT3=
EXTT4=
EXTT5=
EXTT6=
EXTT7=
EXTT8=
EXTT9=
EXTT10=
EXTT11=
EXTT12=
EXTT13=
PLAYORDER=
